# xmcd
#
# Track frame offsets:
#	150
#	12830
#	26043
#	35390
#	45505
#	66130
#	76756
#	88187
#	101298
#	113696
#	127303
#	141697
#	153209
#	165013
#	178897
#	190011
#	199991
#	217043
#
# Disc length: 3028 seconds
#
# Revision: 1
# Processed by: cddbd v1.5.2PL0 Copyright (c) Steve Scherf et al.
# Submitted via: audiograbber 1.83.01
#
DISCID=f10bd212
DTITLE=Various Artist - Country Club Collection CD 3/5 Love Songs
DYEAR=2003
DGENRE=Country
TTITLE0=Lynn Anderson - Top Of Ihe World
TTITLE1=Willie Nelson - You'll Always Have Someone
TTITLE2=Patsy Cline - Love Me, Love Me HoneyDo
TTITLE3=Johnny Cash - The Ways Of A Woman In Love
TTITLE4=Emmylou Harris and Gram Parsons - Love Hurts
TTITLE5=Frankie Laine - A Woman In Love
TTITLE6=Sandy Posey - I Will Follow Him
TTITLE7=Don Williams - Ruby,Tuesday
TTITLE8=Billie Jo Spears - You've Got The Power
TTITLE9=Lee Greenwood - Hearts Aren't Made To Break
TTITLE10=Exile - Woke Up In Love With You
TTITLE11=Kenny Rogers - Poem For A Little Lady
TTITLE12=Skeeter Davis - I Can't Help You (I'm Falling Too)
TTITLE13=David Houston - My Woman's Good To Me
TTITLE14=Anne Murray - The Last Thing On My Mind
TTITLE15=Slim Whitman - Cara Mia
TTITLE16=Connie Francis - Love Is Strange
TTITLE17=Flying Burrito Brothers - Baby, How'd We Ever Get This Way
EXTD=
EXTT0=
EXTT1=
EXTT2=
EXTT3=
EXTT4=
EXTT5=
EXTT6=
EXTT7=
EXTT8=
EXTT9=
EXTT10=
EXTT11=
EXTT12=
EXTT13=
EXTT14=
EXTT15=
EXTT16=
EXTT17=
PLAYORDER=
